# xmcd
#
# Track frame offsets: 
#        150
#        8558
#        29652
#        51804
#        87749
#        105854
#        147239
#        159472
#        172227
#        187894
#        208423
#        220927
#        239805
#        258035
#        276600
#        287349
#        298342
#        312672
#        343344
#
# Disc length: 4742 seconds
#
# Revision: 0
# Processed by: cddbd v1.5.2PL0 Copyright (c) Steve Scherf et al.
# Submitted via: ExactAudioCopy v0.99pb5
#
DISCID=35128413
DTITLE=Stevie Ray Vaughan and Double Trouble - Couldn't Stand the Weat
DTITLE=her
DYEAR=2010
DGENRE=Blues
TTITLE0=Scuttle Buttin'
TTITLE1=Couldn't Stand The Weather
TTITLE2=The Things (That) I Used To Do
TTITLE3=Voodoo Child (Slight Return)
TTITLE4=Cold Shot
TTITLE5=Tin Pan Alley (AKA Roughest Place In Town)
TTITLE6=Honey Bee
TTITLE7=Stang's Swang
TTITLE8=Empty Arms
TTITLE9=Come On (Part III
TTITLE10=Look At Little Sister
TTITLE11=The Sky Is Crying (Previously Unreleased 1984 Version)
TTITLE12=Hide Away
TTITLE13=Give Me Back My Wig
TTITLE14=Boot Hill (Previously Unreleased 1984 Version)
TTITLE15=Wham!
TTITLE16=Close To You
TTITLE17=Little Wing
TTITLE18=Stang's Swang (Previously Unreleased Alternate Take)
EXTD=
EXTT0=
EXTT1=
EXTT2=
EXTT3=
EXTT4=
EXTT5=
EXTT6=
EXTT7=
EXTT8=
EXTT9=
EXTT10=
EXTT11=
EXTT12=
EXTT13=
EXTT14=
EXTT15=
EXTT16=
EXTT17=
EXTT18=
PLAYORDER=
